ModelForces
version=1
nRows=4
nColumns=155
inDegrees=no

This file contains the forces exerted on a model during a simulation.

A force is a generalized force, meaning that it can be either a force (N) or a torque (Nm).

Units are S.I. units (second, meters, Newtons, ...)
Angles are in degrees.

endheader
time	glut_med1_r	glut_med2_r	glut_med3_r	glut_min1_r	glut_min2_r	glut_min3_r	semimem_r	semiten_r	bifemlh_r	bifemsh_r	sar_r	add_long_r	add_brev_r	add_mag1_r	add_mag2_r	add_mag3_r	tfl_r	pect_r	grac_r	glut_max1_r	glut_max2_r	glut_max3_r	iliacus_r	psoas_r	quad_fem_r	gem_r	peri_r	rect_fem_r	vas_med_r	vas_int_r	vas_lat_r	med_gas_r	lat_gas_r	soleus_r	tib_post_r	flex_dig_r	flex_hal_r	tib_ant_r	per_brev_r	per_long_r	per_tert_r	ext_dig_r	ext_hal_r	glut_med1_l	glut_med2_l	glut_med3_l	glut_min1_l	glut_min2_l	glut_min3_l	semimem_l	semiten_l	bifemlh_l	bifemsh_l	sar_l	add_long_l	add_brev_l	add_mag1_l	add_mag2_l	add_mag3_l	tfl_l	pect_l	grac_l	glut_max1_l	glut_max2_l	glut_max3_l	iliacus_l	psoas_l	quad_fem_l	gem_l	peri_l	rect_fem_l	vas_med_l	vas_int_l	vas_lat_l	med_gas_l	lat_gas_l	soleus_l	tib_post_l	flex_dig_l	flex_hal_l	tib_ant_l	per_brev_l	per_long_l	per_tert_l	ext_dig_l	ext_hal_l	ercspn_r	ercspn_l	intobl_r	intobl_l	extobl_r	extobl_l	femur_lat_meniscii_r.femur_lat_r.force.X	femur_lat_meniscii_r.femur_lat_r.force.Y	femur_lat_meniscii_r.femur_lat_r.force.Z	femur_lat_meniscii_r.femur_lat_r.torque.X	femur_lat_meniscii_r.femur_lat_r.torque.Y	femur_lat_meniscii_r.femur_lat_r.torque.Z	femur_lat_meniscii_r.meniscus_lat_r.force.X	femur_lat_meniscii_r.meniscus_lat_r.force.Y	femur_lat_meniscii_r.meniscus_lat_r.force.Z	femur_lat_meniscii_r.meniscus_lat_r.torque.X	femur_lat_meniscii_r.meniscus_lat_r.torque.Y	femur_lat_meniscii_r.meniscus_lat_r.torque.Z	femur_med_meniscii_r.femur_med_r.force.X	femur_med_meniscii_r.femur_med_r.force.Y	femur_med_meniscii_r.femur_med_r.force.Z	femur_med_meniscii_r.femur_med_r.torque.X	femur_med_meniscii_r.femur_med_r.torque.Y	femur_med_meniscii_r.femur_med_r.torque.Z	femur_med_meniscii_r.meniscus_med_r.force.X	femur_med_meniscii_r.meniscus_med_r.force.Y	femur_med_meniscii_r.meniscus_med_r.force.Z	femur_med_meniscii_r.meniscus_med_r.torque.X	femur_med_meniscii_r.meniscus_med_r.torque.Y	femur_med_meniscii_r.meniscus_med_r.torque.Z	femur_med_tibia_r.tibia_upper_r.force.X	femur_med_tibia_r.tibia_upper_r.force.Y	femur_med_tibia_r.tibia_upper_r.force.Z	femur_med_tibia_r.tibia_upper_r.torque.X	femur_med_tibia_r.tibia_upper_r.torque.Y	femur_med_tibia_r.tibia_upper_r.torque.Z	femur_med_tibia_r.femur_med_r.force.X	femur_med_tibia_r.femur_med_r.force.Y	femur_med_tibia_r.femur_med_r.force.Z	femur_med_tibia_r.femur_med_r.torque.X	femur_med_tibia_r.femur_med_r.torque.Y	femur_med_tibia_r.femur_med_r.torque.Z	femur_lat_tibia_r.tibia_upper_r.force.X	femur_lat_tibia_r.tibia_upper_r.force.Y	femur_lat_tibia_r.tibia_upper_r.force.Z	femur_lat_tibia_r.tibia_upper_r.torque.X	femur_lat_tibia_r.tibia_upper_r.torque.Y	femur_lat_tibia_r.tibia_upper_r.torque.Z	femur_lat_tibia_r.femur_lat_r.force.X	femur_lat_tibia_r.femur_lat_r.force.Y	femur_lat_tibia_r.femur_lat_r.force.Z	femur_lat_tibia_r.femur_lat_r.torque.X	femur_lat_tibia_r.femur_lat_r.torque.Y	femur_lat_tibia_r.femur_lat_r.torque.Z	aACL_R	pACL_R	aPCL_R	pPCL_R	aMCL_R	mMCL_R	pMCL_R	aLCL_R	mLCL_R	pLCL_R	aPCL_L	pPCL_L	aMCL_L	aLCL_L
      0.20950455	      9.71554562	      7.15054720	      7.67627155	      3.32279637	      3.89967896	      4.10763774	      0.00000000	    163.58772835	    181.96888448	    341.05070460	    122.29690753	      7.10378158	      5.16436665	      3.67818715	      3.10925131	      5.17339897	      3.28373854	      2.80179169	     92.57330726	      4.61482631	      7.01766696	      5.26033209	     25.35224666	     16.02859863	      4.55437996	      3.29491747	      5.57302437	    114.21925411	     40.62074134	     32.12095095	     56.11790288	      0.00000000	      0.00000000	      0.00000000	      0.00000000	      0.00000000	      0.00000000	     35.37377247	      1.50319240	      3.41095043	     23.65763104	     49.36409082	     11.81063298	      9.71554562	      7.15054720	      7.67627155	      3.32279637	      3.89967896	      4.10763774	     10.58558029	      5.24426484	     10.26300872	      9.06347037	      1.89722413	      7.10378158	      5.16436665	      3.67818715	      3.10925131	      5.17339897	      4.83142437	      2.80179169	      1.95345218	      4.61482631	      7.01766696	      5.26033209	     25.35224666	     16.02859863	      4.55437996	      3.29491747	      5.57302437	     14.20383960	      0.00000000	      0.00000000	      0.00000000	     19.33339189	      9.03167849	     42.98951558	     47.27912937	      4.17836689	      3.63948176	     11.12953262	      5.88907199	     15.83238764	      2.47938846	      7.87143372	      2.52115231	     31.26595009	     31.26595009	     11.47515659	     11.47515659	     29.03097755	     29.03097755	    178.53599896	    106.81783963	      8.50123853	     -5.82708387	      4.13859978	     70.92569458	   -178.53599896	   -106.81783963	     -8.50123853	      2.75273742	     -4.83378853	      2.37422205	      0.04125088	      0.00102306	     -0.02592205	      0.01032119	     -0.00064199	      0.01639878	     -0.04125088	     -0.00102306	      0.02592205	     -0.00009631	      0.00123720	     -0.00010399	   -886.96874962	   -366.79185691	    313.75613306	     -8.27307508	     21.76665633	      2.25624544	    886.96874962	    366.79185691	   -313.75613306	    132.95594969	    -15.57152774	    357.45667879	   -293.47520629	   -131.55328648	    -79.29062698	      4.26804053	    -10.10050775	      0.96248067	    293.47520629	    131.55328648	     79.29062698	    -35.19340717	      7.18741669	    118.33352463	      1.24083159	      0.00000000	    962.55792509	    607.78331639	     24.30376629	     10.25194407	      0.00000000	      0.00000000	      0.00000000	      0.00000000	      0.00000000	      0.00000000	      0.00000001	      0.00000000
      0.20956012	      9.71396709	      7.14946859	      7.67509931	      3.32231625	      3.89915591	      4.10697038	      0.00000000	    163.62348037	    182.02993795	    341.12805225	    122.30375931	      7.10269739	      5.16362737	      3.67763638	      3.10877379	      5.17253305	      3.28342222	      2.80138406	     92.58414443	      4.61412875	      7.01660341	      5.25952129	     25.35027272	     16.02635348	      4.55370739	      3.29459383	      5.57216002	    114.01301825	     40.63619971	     32.02058802	     56.13832396	      0.00000000	      0.00000000	      0.00000000	      0.00000000	      0.00000000	      0.00000000	     35.37275479	      1.49878461	      3.40538519	     23.57690401	     49.33792558	     11.80313032	      9.71396709	      7.14946859	      7.67509931	      3.32231625	      3.89915591	      4.10697038	     10.58651409	      5.24341787	     10.26117337	      9.06213066	      1.89695127	      7.10269739	      5.16362737	      3.67763638	      3.10877379	      5.17253305	      4.83088846	      2.80138406	      1.95316627	      4.61412875	      7.01660341	      5.25952129	     25.35027272	     16.02635348	      4.55370739	      3.29459383	      5.57216002	     14.20128788	      0.00000000	      0.00000000	      0.00000000	     19.33073677	      9.03036206	     42.98162821	     47.27567353	      4.17670438	      3.63799966	     11.12759600	      5.88797096	     15.83012034	      2.47904202	      7.87065261	      2.52092169	     31.26142208	     31.26142208	     11.47335313	     11.47335313	     29.02935162	     29.02935162	    178.11919435	    106.45172506	      8.40577794	     -5.78057284	      4.12791086	     70.75921544	   -178.11919435	   -106.45172506	     -8.40577794	      2.74298742	     -4.81974881	      2.36900829	      0.04086905	      0.00104518	     -0.02566699	      0.01021984	     -0.00063590	      0.01624652	     -0.04086905	     -0.00104518	      0.02566699	     -0.00009519	      0.00122527	     -0.00010124	   -887.12906421	   -366.72014922	    314.11266941	     -8.26979332	     21.78066166	      2.26999531	    887.12906421	    366.72014922	   -314.11266941	    133.09719778	    -15.57594391	    357.51623597	   -293.61793524	   -131.31425686	    -79.29824481	      4.26128442	    -10.10507059	      0.95752136	    293.61793524	    131.31425686	     79.29824481	    -35.19097049	      7.19051383	    118.39232602	      1.17256924	      0.00000000	    963.00016845	    608.15243739	     24.25908634	     10.23210713	      0.00000000	      0.00000000	      0.00000000	      0.00000000	      0.00000000	      0.00000000	      0.00000001	      0.00000000
      0.20969076	      9.71026020	      7.14693569	      7.67234654	      3.32118877	      3.89792764	      4.10540324	      0.00000000	    163.70510213	    182.16908873	    341.28601208	    122.31639337	      7.10015137	      5.16189130	      3.67634296	      3.10765243	      5.17049960	      3.28268289	      2.80042681	     92.60705989	      4.61249068	      7.01410586	      5.25761730	     25.34563735	     16.02108128	      4.55212798	      3.29383385	      5.57012868	    114.03694579	     40.66988835	     31.93395423	     56.18041927	      0.00000000	      0.00000000	      0.00000000	      0.00000000	      0.00000000	      0.00000000	     35.37075847	      1.48838045	      3.39216414	     23.44717333	     49.27688979	     11.78567074	      9.71026020	      7.14693569	      7.67234654	      3.32118877	      3.89792764	      4.10540324	     10.58867304	      5.24142896	     10.25686307	      9.05898460	      1.89631052	      7.10015137	      5.16189130	      3.67634296	      3.10765243	      5.17049960	      4.82963001	      2.80042681	      1.95249486	      4.61249068	      7.01410586	      5.25761730	     25.34563735	     16.02108128	      4.55212798	      3.29383385	      5.57012868	     14.19529554	      0.00000000	      0.00000000	      0.00000000	     19.32449452	      9.02726757	     42.96310141	     47.26755745	      4.17279912	      3.63451943	     11.12304810	      5.88538523	     15.82479511	      2.47822849	      7.86881514	      2.52037871	     31.25078882	     31.25078882	     11.46911806	     11.46911806	     29.02553348	     29.02553348	    177.68629667	    106.78040688	      8.88690009	     -5.98284713	      4.12190290	     70.57558006	   -177.68629667	   -106.78040688	     -8.88690009	      2.75653376	     -4.82641098	      2.39692193	      0.03992972	      0.00109317	     -0.02502553	      0.00996491	     -0.00062081	      0.01587206	     -0.03992972	     -0.00109317	      0.02502553	     -0.00009243	      0.00119542	     -0.00009483	   -887.25784919	   -365.73507383	    316.82466772	     -8.27154069	     21.88425359	      2.27313908	    887.25784919	    365.73507383	   -316.82466772	    134.17559814	    -15.60548963	    357.56540582	   -293.87752891	   -130.98686743	    -79.54284678	      4.25374705	    -10.12325183	      0.95618882	    293.87752891	    130.98686743	     79.54284678	    -35.28238453	      7.19930867	    118.49663251	      0.98295936	      0.00000000	    964.04272801	    609.02762606	     24.14821757	     10.18080198	      0.00000000	      0.00000000	      0.00000000	      0.00000000	      0.00000000	      0.00000000	      0.00000001	      0.00000000
      0.20970806	      9.70976981	      7.14660061	      7.67198237	      3.32103962	      3.89776515	      4.10519592	      0.00000000	    163.71566811	    182.18706986	    341.30457493	    122.31772359	      7.09981456	      5.16166164	      3.67617185	      3.10750409	      5.17023060	      3.28258472	      2.80030018	     92.60984499	      4.61227398	      7.01377546	      5.25736543	     25.34502414	     16.02038383	      4.55191903	      3.29373331	      5.56985978	    114.06097220	     40.67408996	   5517.51787382	     56.18547916	      0.00000000	      0.00000000	      0.00000000	      0.00000000	      0.00000000	      0.00000000	     35.37053766	      1.48699789	      3.39039843	     23.43479066	     49.26885581	     11.78337762	      9.70976981	      7.14660061	      7.67198237	      3.32103962	      3.89776515	      4.10519592	     10.58895509	      5.24116585	     10.25629282	      9.05856840	      1.89622575	      7.09981456	      5.16166164	      3.67617185	      3.10750409	      5.17023060	      4.82946353	      2.80030018	      1.95240604	      4.61227398	      7.01377546	      5.25736543	     25.34502414	     16.02038383	      4.55191903	      3.29373331	      5.56985978	     14.19450280	      0.00000000	      0.00000000	      0.00000000	     19.32366797	      9.02685788	     42.96064999	     47.26648370	      4.17228237	      3.63405905	     11.12244644	      5.88504314	     15.82409054	      2.47812087	      7.86857172	      2.52030673	     31.24938213	     31.24938213	     11.46855781	     11.46855781	     29.02502839	     29.02502839	    169.22268169	    107.07754070	     11.11657103	     -6.89252768	      3.94854797	     67.14416043	   -169.22268169	   -107.07754070	    -11.11657103	      2.78765798	     -4.69155286	      2.49927485	      0.03750118	      0.00126983	     -0.02356418	      0.00938542	     -0.00058358	      0.01490457	     -0.03750118	     -0.00126983	      0.02356418	     -0.00008872	      0.00112490	     -0.00008018	   -883.94331255	   -369.91214590	    314.15899780	     -8.27916399	     21.74525503	      2.48293906	    883.94331255	    369.91214590	   -314.15899780	    133.14410116	    -15.53003131	    356.16543236	   -292.57169439	   -132.66490895	    -80.52540669	      4.30725390	    -10.13226806	      1.04487096	    292.57169439	    132.66490895	     80.52540669	    -35.71923860	      7.18480666	    117.93971639	      0.29481030	      0.00000000	    965.99694910	    614.15194429	     25.93934112	     12.41941919	      0.00000000	      0.00000000	      0.00000000	      0.00000000	      0.00000000	      0.00000000	      0.00000001	      0.00000000
